<svg width="16" height="16" viewBox="0 0 16 16" fill="none" xmlns="http://www.w3.org/2000/svg">
<path d="M5.31988 5.79657V7.41538H6.0282C6.62576 7.41538 6.9173 7.14907 6.9173 6.61907C6.9173 6.08645 6.62576 5.79657 6.0234 5.79657H5.31988Z" fill="black"/>
<path d="M10.4929 7.04202C9.99406 7.04202 9.71458 7.49894 9.71458 8.21431C9.71458 8.92969 9.99893 9.39969 10.4929 9.39969C10.9964 9.39969 11.2711 8.91405 11.2711 8.21431C11.2711 7.51981 11.0012 7.04202 10.4929 7.04202Z" fill="black"/>
<path fill-rule="evenodd" clip-rule="evenodd" d="M8 15C11.866 15 15 11.866 15 8C15 4.13399 11.866 1 8 1C4.13399 1 1 4.13399 1 8C1 11.866 4.13399 15 8 15ZM5.31988 10.2195H4.2766V4.87234H6.22338C7.34375 4.87234 7.99186 5.55637 7.99186 6.61907C7.99186 7.35008 7.68104 7.88015 7.11969 8.14123L8.16777 10.2195H7.01606L6.08121 8.32398H5.31988V10.2195ZM9.73626 11.7234H8.70985V6.20913H9.72186V6.88276H9.7676C9.90497 6.55638 10.2013 6.15691 10.8205 6.15691C11.6325 6.15691 12.3191 6.84094 12.3191 8.21955C12.3191 9.56157 11.6614 10.2848 10.8181 10.2848C10.2206 10.2848 9.90977 9.91144 9.7676 9.57721H9.73626V11.7234Z" fill="black"/>
</svg>
