<svg width="16" height="16" viewBox="0 0 16 16" fill="none" xmlns="http://www.w3.org/2000/svg">
<path fill-rule="evenodd" clip-rule="evenodd" d="M7.99992 1.33334C4.31992 1.33334 1.33325 4.32001 1.33325 8.00001C1.33325 11.68 4.31992 14.6667 7.99992 14.6667C11.6799 14.6667 14.6666 11.68 14.6666 8.00001C14.6666 4.32001 11.6799 1.33334 7.99992 1.33334ZM7.33325 13.2867C4.69992 12.96 2.66659 10.72 2.66659 8.00001C2.66659 7.58668 2.71992 7.19334 2.80659 6.80668L5.99992 10V10.6667C5.99992 11.4 6.59992 12 7.33325 12V13.2867ZM10.6666 10.6667C11.2666 10.6667 11.7599 11.0533 11.9333 11.5933C12.7999 10.6467 13.3333 9.38668 13.3333 8.00001C13.3333 5.76668 11.9533 3.85334 9.99992 3.06001V3.33334C9.99992 4.06668 9.39992 4.66668 8.66658 4.66668H7.33325V6.00001C7.33325 6.36668 7.03325 6.66668 6.66658 6.66668H5.33325V8.00001H9.33325C9.69992 8.00001 9.99992 8.30001 9.99992 8.66668V10.6667H10.6666Z" fill="black"/>
</svg>
